<svg width="73" height="71" viewBox="0 0 73 71" fill="none" xmlns="http://www.w3.org/2000/svg">
<path opacity="0.4" d="M5.95475 0H67.0453C70.0582 0 72.5 2.40791 72.5 5.379V26.8945C72.5 29.8651 70.0582 32.2735 67.0453 32.2735H5.95475C2.94182 32.2735 0.5 29.8651 0.5 26.8945V5.379C0.5 2.40791 2.94182 0 5.95475 0ZM5.95475 2.15142C4.14717 2.15142 2.68172 3.59652 2.68172 5.379V26.8945C2.68172 28.677 4.14717 30.1216 5.95475 30.1216H67.0453C68.8528 30.1216 70.3183 28.6768 70.3183 26.8945V5.379C70.3183 3.59652 68.8528 2.15142 67.0453 2.15142H5.95475ZM5.95475 38.7265H27.7732C30.7857 38.7265 33.228 41.1349 33.228 44.1055V65.621C33.228 68.5921 30.7857 71 27.7732 71H5.95475C2.94182 71 0.5 68.5921 0.5 65.621V44.1055C0.5 41.1349 2.94182 38.7265 5.95475 38.7265ZM5.95475 40.8784C4.14717 40.8784 2.68172 42.3232 2.68172 44.1055V65.621C2.68172 67.4035 4.14717 68.8486 5.95475 68.8486H27.7732C29.5808 68.8486 31.0458 67.4035 31.0458 65.621V44.1055C31.0458 42.323 29.5807 40.8784 27.7732 40.8784H5.95475ZM45.2268 38.7265H67.0453C70.0582 38.7265 72.5 41.1349 72.5 44.1055V65.621C72.5 68.5921 70.0582 71 67.0453 71H45.2268C42.2143 71 39.772 68.5921 39.772 65.621V44.1055C39.772 41.1349 42.2143 38.7265 45.2268 38.7265ZM45.2268 40.8784C43.4192 40.8784 41.9542 42.3232 41.9542 44.1055V65.621C41.9542 67.4035 43.4193 68.8486 45.2268 68.8486H67.0453C68.8528 68.8486 70.3183 67.4035 70.3183 65.621V44.1055C70.3183 42.323 68.8528 40.8784 67.0453 40.8784H45.2268ZM23.4083 54.8629C23.4083 54.2691 23.8964 53.7872 24.4991 53.7872C25.1013 53.7872 25.59 54.2691 25.59 54.8629C25.59 59.6158 21.6826 63.4689 16.8627 63.4689C12.0428 63.4689 8.13542 59.6158 8.13542 54.8629C8.13542 50.1099 12.0428 46.2568 16.8627 46.2568C17.4649 46.2568 17.9535 46.7387 17.9535 47.3325C17.9535 47.9268 17.4649 48.4082 16.8627 48.4082C13.2477 48.4082 10.3171 51.298 10.3171 54.8628C10.3171 58.4277 13.2477 61.3175 16.8627 61.3175C20.4777 61.3175 23.4083 58.4277 23.4083 54.8629ZM49.1533 54.6479C48.6712 55.0045 47.9871 54.9079 47.626 54.4325C47.2644 53.9575 47.3618 53.283 47.844 52.9264L52.2078 49.6993C52.5383 49.4547 52.9802 49.4156 53.3499 49.5978L57.0755 51.4347L63.0727 46.5064C63.5357 46.126 64.2238 46.1875 64.6095 46.6441C64.9952 47.1002 64.9324 47.7787 64.4699 48.159L57.9243 53.538C57.5914 53.8114 57.1258 53.8649 56.738 53.6737L52.9773 51.8195L49.1533 54.6479ZM51.7714 62.3933C51.1687 62.3933 50.6806 61.9119 50.6806 61.3176C50.6806 60.7232 51.1687 60.2419 51.7714 60.2419H60.4987C61.1008 60.2419 61.5895 60.7232 61.5895 61.3176C61.5895 61.9119 61.1008 62.3933 60.4987 62.3933H51.7714ZM18.0537 21.5506L9.60861 24.6732C9.04411 24.8822 8.41532 24.6004 8.20385 24.0437C7.99241 23.4875 8.27817 22.8675 8.84217 22.659L17.5694 19.4314C17.7543 19.3635 17.9537 19.3457 18.1475 19.3804L29.8119 21.4718L41.5013 16.2325C41.7328 16.1285 41.994 16.1077 42.2396 16.1736L53.7135 19.2596L63.1007 12.0595C63.5763 11.6945 64.2619 11.7792 64.632 12.2482C65.0016 12.7172 64.9162 13.3933 64.4406 13.7577L54.6221 21.2882C54.3513 21.4962 53.9968 21.566 53.6653 21.4769L42.0457 18.3519L30.404 23.5698C30.2016 23.6605 29.9761 23.6882 29.7576 23.6491L18.0537 21.5506ZM21.2253 11.8327C20.6231 11.8327 20.1344 11.3513 20.1344 10.757C20.1344 10.1632 20.6231 9.68133 21.2253 9.68133H32.1348C32.7369 9.68133 33.2256 10.1632 33.2256 10.757C33.2256 11.3513 32.7369 11.8327 32.1348 11.8327H21.2253ZM11.4072 15.0603C8.99751 15.0603 7.04375 13.1338 7.04375 10.7571C7.04375 8.38086 8.99738 6.45423 11.4072 6.45423C13.8174 6.45423 15.771 8.38074 15.771 10.7571C15.771 13.1338 13.8174 15.0603 11.4072 15.0603ZM11.4072 12.9084C12.612 12.9084 13.5889 11.9451 13.5889 10.7569C13.5889 9.5688 12.6121 8.60553 11.4072 8.60553C10.2023 8.60553 9.22547 9.5688 9.22547 10.7569C9.22547 11.9451 10.2023 12.9084 11.4072 12.9084Z" fill="#06262A"/>
</svg>
