<svg width="174" height="54" viewBox="0 0 174 54" fill="none" xmlns="http://www.w3.org/2000/svg">
<g clip-path="url(#clip0_35_897)">
<path fill-rule="evenodd" clip-rule="evenodd" d="M65.9844 3.54724H66.4478C66.8805 3.54724 67.2052 3.46277 67.4202 3.29293C67.6351 3.12262 67.7426 2.8757 67.7426 2.5517C67.7426 2.224 67.6528 1.98216 67.4723 1.82616C67.2922 1.66923 67.0098 1.5917 66.6251 1.5917H65.9844V3.54724ZM69.1648 2.50139C69.1648 3.21077 68.9411 3.75354 68.4949 4.12923C68.0483 4.50447 67.4123 4.69231 66.5888 4.69231H65.984V7.03647H64.5762V0.445697H66.6977C67.5035 0.445697 68.1162 0.618312 68.5354 0.962158C68.955 1.30647 69.1648 1.8197 69.1648 2.50139ZM74.5974 4.29585C74.1522 2.87431 73.9015 2.07077 73.8456 1.88431C73.7898 1.69831 73.7493 1.55108 73.7251 1.44262C73.6251 1.82708 73.339 2.77831 72.8663 4.29585H74.5974ZM75.4153 7.036L74.9338 5.4677H72.5122L72.0303 7.036H70.5136L72.857 0.41985H74.5788L76.933 7.036H75.4153ZM80.1078 3.37185H80.5623C81.0075 3.37185 81.336 3.298 81.5486 3.15031C81.7603 3.00354 81.8659 2.77185 81.8659 2.45708C81.8659 2.14462 81.758 1.9217 81.5412 1.7897C81.3244 1.6577 80.9894 1.59123 80.5349 1.59123H80.1078V3.37185ZM80.1078 4.50724V7.036H78.6995V0.44662H80.6349C81.5374 0.44662 82.2055 0.610004 82.6382 0.93585C83.0713 1.2617 83.2881 1.75693 83.2881 2.42062C83.2881 2.80831 83.1802 3.15308 82.9657 3.45539C82.7508 3.75724 82.4461 3.994 82.0525 4.16523C83.0518 5.64677 83.7031 6.60354 84.0065 7.036H82.4433L80.8573 4.5077H80.1082L80.1078 4.50724ZM88.3351 7.036H86.9268V1.60923H85.1231V0.44662H90.1388V1.60923H88.3351V7.036ZM96.6201 3.73231C96.6201 4.46847 96.7611 5.02277 97.0425 5.3957C97.3245 5.76816 97.7455 5.95416 98.3056 5.95416C99.4292 5.95416 99.9912 5.21385 99.9912 3.73231C99.9912 2.248 99.4329 1.50585 98.315 1.50585C97.7543 1.50585 97.3319 1.69277 97.0472 2.06708C96.7624 2.44093 96.6201 2.99616 96.6201 3.73231ZM101.468 3.73231C101.468 4.82293 101.195 5.66154 100.65 6.24724C100.105 6.83339 99.3241 7.12647 98.3056 7.12647C97.2882 7.12647 96.5066 6.83339 95.9613 6.24724C95.416 5.66108 95.1434 4.8197 95.1434 3.72262C95.1434 2.62647 95.417 1.78877 95.9636 1.21047C96.5103 0.632158 97.2942 0.342773 98.315 0.342773C99.3357 0.342773 100.116 0.634466 100.657 1.21739C101.198 1.79985 101.468 2.63847 101.468 3.73231ZM105.161 7.036H103.775V0.44662H107.583V1.59123H105.161V3.29062H107.415V4.43062H105.161V7.036ZM66.9945 27.4023H69.3114C70.6597 27.4023 71.7144 26.9943 72.4466 26.1903C73.1729 25.3928 73.5414 24.2214 73.5414 22.7103C73.5414 21.9972 73.4455 21.3497 73.2562 20.7866C73.0654 20.2166 72.7844 19.7269 72.4225 19.3305C72.0577 18.9317 71.606 18.6252 71.0798 18.4199C70.5592 18.2168 69.9641 18.1139 69.3119 18.1139H66.9945V27.4023ZM64.5371 29.4211V16.0951H69.7734C70.7722 16.0951 71.6748 16.2423 72.4522 16.534C73.2245 16.8229 73.8842 17.2503 74.4118 17.8042C74.9408 18.3594 75.3516 19.0512 75.6312 19.8603C75.9141 20.6758 76.0569 21.6188 76.0569 22.6623C76.0569 23.7525 75.915 24.7319 75.6349 25.5732C75.3586 26.4059 74.9506 27.1148 74.4197 27.6802C73.8912 28.2432 73.232 28.6789 72.4611 28.9725C71.6832 29.2702 70.7797 29.4211 69.7729 29.4211H64.5366H64.5371ZM79.8863 17.4368C79.6621 17.4368 79.4564 17.4059 79.2764 17.3445C79.0996 17.2835 78.9475 17.1995 78.826 17.0952C78.7051 16.9918 78.6157 16.8714 78.5515 16.7288C78.4878 16.5862 78.4557 16.4269 78.4557 16.2552C78.4557 16.0785 78.4883 15.916 78.552 15.7734C78.6157 15.6303 78.7055 15.5108 78.8256 15.4074C78.9465 15.3035 79.0973 15.2209 79.2736 15.1642C79.455 15.1046 79.6611 15.0751 79.8858 15.0751C80.1106 15.0751 80.3153 15.1046 80.4934 15.1632C80.667 15.2205 80.8159 15.3031 80.9373 15.4079C81.0582 15.5117 81.1499 15.6322 81.2174 15.7762C81.2834 15.9179 81.3169 16.0794 81.3169 16.2552C81.3169 16.4265 81.2834 16.5839 81.2174 16.726C81.1499 16.8695 81.0587 16.9909 80.9373 17.0952C80.8149 17.2 80.6642 17.2845 80.4907 17.3445C80.3134 17.4059 80.1096 17.4368 79.8858 17.4368H79.8863ZM78.7055 29.4206H81.0573V19.3462H78.7055V29.4206ZM88.5384 21.0599C88.129 21.0599 87.7573 21.1374 87.4334 21.2906C87.1092 21.4452 86.83 21.6682 86.6053 21.9543C86.3825 22.2377 86.2126 22.582 86.1001 22.9789C85.9893 23.3694 85.9326 23.8083 85.9326 24.2832C85.9326 24.7651 85.9893 25.2063 86.1001 25.5972C86.2126 25.9942 86.3806 26.3389 86.5988 26.62C86.8212 26.9075 87.1003 27.1314 87.4297 27.2855C87.7558 27.4388 88.129 27.5163 88.5384 27.5163C88.9478 27.5163 89.3223 27.4388 89.6517 27.2855C89.9825 27.1318 90.2672 26.9089 90.4957 26.6228C90.7204 26.3408 90.8934 25.9983 91.0102 25.6042C91.1247 25.2165 91.1828 24.7757 91.1828 24.2929C91.1828 23.8097 91.1233 23.3671 91.006 22.9757C90.8855 22.5797 90.7106 22.2359 90.4864 21.9539C90.257 21.6668 89.9751 21.4443 89.648 21.2906C89.3214 21.1374 88.9478 21.0599 88.5384 21.0599ZM88.5002 33.406C87.8177 33.406 87.1897 33.3345 86.6328 33.1937C86.0828 33.0539 85.6018 32.8535 85.2045 32.5979C84.8137 32.3459 84.4987 32.0408 84.2712 31.6905C84.0884 31.4108 83.9651 31.1015 83.9023 30.7674H86.2489C86.3676 31.0775 86.6128 31.3286 86.9812 31.5151C87.386 31.7219 87.9164 31.8262 88.5584 31.8262C89.3619 31.8262 89.9983 31.6462 90.4496 31.2922C90.9172 30.9257 91.154 30.4014 91.154 29.7368V27.5708H90.6236L90.5617 27.6894C90.2896 28.2059 89.8987 28.6014 89.4 28.8654C88.8938 29.1322 88.2769 29.2688 87.5679 29.2688C86.9445 29.2688 86.3759 29.1515 85.8791 28.9217C85.3836 28.6928 84.9556 28.3609 84.6071 27.9382C84.2554 27.5117 83.9814 26.9865 83.7929 26.3772C83.6013 25.7629 83.5045 25.0618 83.5045 24.2929C83.5045 23.5046 83.6013 22.7828 83.7929 22.1491C83.9818 21.5223 84.2582 20.9814 84.6131 20.5411C84.9649 20.1063 85.3994 19.7657 85.9042 19.5303C86.4099 19.2945 86.9891 19.1749 87.6256 19.1749C87.9634 19.1749 88.2899 19.2155 88.597 19.2963C88.9027 19.3766 89.1902 19.4925 89.4517 19.6415C89.7094 19.7883 89.9429 19.972 90.1449 20.1862C90.3463 20.4012 90.5147 20.6454 90.645 20.9103L90.7059 21.0335H91.241V19.3466H93.5058V29.6029C93.5058 30.1831 93.3908 30.7115 93.1629 31.1749C92.9354 31.6379 92.6046 32.038 92.1794 32.3652C91.7481 32.6962 91.2186 32.9542 90.6045 33.1328C89.9834 33.3142 89.2753 33.4051 88.5002 33.4051M97.6808 17.4368C97.4575 17.4368 97.2519 17.4059 97.0714 17.3445C96.8946 17.2835 96.7424 17.1995 96.621 17.0952C96.5 16.9918 96.4117 16.8714 96.347 16.7288C96.2828 16.5862 96.2507 16.4269 96.2507 16.2552C96.2507 16.0785 96.2832 15.916 96.3474 15.7734C96.4112 15.6303 96.5 15.5108 96.6205 15.4074C96.7415 15.3035 96.8922 15.2209 97.0686 15.1642C97.25 15.1046 97.4566 15.0751 97.6808 15.0751C97.9055 15.0751 98.1103 15.1046 98.2884 15.1632C98.462 15.2205 98.6104 15.3031 98.7318 15.4079C98.8532 15.5117 98.9444 15.6322 99.0119 15.7762C99.0784 15.9179 99.1119 16.0794 99.1119 16.2552C99.1119 16.4265 99.0784 16.5839 99.0124 16.726C98.9449 16.8695 98.8537 16.9909 98.7323 17.0952C98.6099 17.2 98.4592 17.2845 98.2856 17.3445C98.1088 17.4059 97.9046 17.4368 97.6808 17.4368ZM96.5005 29.4206H98.8523V19.3462H96.5005V29.4206ZM106.017 29.4589C105.388 29.4589 104.851 29.4063 104.416 29.3029C103.995 29.2028 103.649 29.0459 103.388 28.8359C103.134 28.6309 102.945 28.3632 102.828 28.0411C102.707 27.7051 102.644 27.2874 102.644 26.8V21.1928H100.991V19.4509H102.644V16.8483H104.996V19.4514H107.197V21.1928H104.996V26.1423C104.996 26.6583 105.128 27.0515 105.388 27.3091C105.648 27.5666 106.054 27.6982 106.593 27.6982C106.784 27.6982 106.939 27.6945 107.057 27.688L107.197 27.6792V29.3689C107.07 29.3878 106.926 29.4059 106.767 29.4215C106.53 29.4465 106.277 29.4589 106.017 29.4589ZM113.415 24.9691C111.765 25.0835 111.419 25.8423 111.419 26.458C111.419 26.9237 111.605 27.2952 111.972 27.5602C112.316 27.8094 112.762 27.9363 113.295 27.9363C113.645 27.9363 113.974 27.8837 114.271 27.7808C114.572 27.6769 114.838 27.5288 115.062 27.3409C115.29 27.1508 115.47 26.9246 115.598 26.6708C115.728 26.4114 115.795 26.128 115.795 25.828V24.8209L113.415 24.9691ZM112.372 29.5831C111.887 29.5831 111.441 29.512 111.043 29.3717C110.65 29.2328 110.307 29.0329 110.023 28.7772C109.74 28.5234 109.518 28.2137 109.361 27.8565C109.204 27.4988 109.125 27.0889 109.125 26.638C109.125 25.7426 109.443 25.0655 110.095 24.568C110.761 24.0612 111.745 23.7672 113.019 23.6934L115.795 23.5282V22.462C115.795 21.9543 115.613 21.5555 115.253 21.274C114.911 21.0054 114.416 20.8692 113.785 20.8692C113.246 20.8692 112.791 20.9606 112.435 21.1411C112.108 21.3059 111.87 21.5412 111.725 21.8422H109.55C109.611 21.4882 109.733 21.1605 109.914 20.866C110.137 20.5037 110.44 20.1899 110.817 19.9319C111.197 19.6711 111.654 19.4685 112.175 19.3291C112.701 19.1892 113.295 19.1177 113.939 19.1177C114.612 19.1177 115.219 19.1962 115.744 19.3512C116.26 19.5045 116.698 19.7265 117.045 20.0108C117.388 20.2923 117.653 20.6422 117.834 21.0492C118.016 21.4614 118.108 21.9368 118.108 22.4625V29.4211H115.842V28.0475H115.318L115.254 28.1597C115.001 28.6019 114.621 28.9522 114.122 29.2005C113.615 29.4539 113.026 29.5831 112.372 29.5831Z" fill="#FDFDFD"/>
<mask id="mask0_35_897" style="mask-type:luminance" maskUnits="userSpaceOnUse" x="0" y="0" width="174" height="54">
<path d="M0 53.7845H173.684V0H0V53.7845Z" fill="#FEFEFE"/>
</mask>
<g mask="url(#mask0_35_897)">
<path fill-rule="evenodd" clip-rule="evenodd" d="M121.122 29.4208H123.474V15.3328H121.122V29.4208ZM142.514 29.4208L139.89 20.316H139.401L136.806 29.4208H134.406L130.854 16.1045H133.404L135.566 25.8005H136.07L138.598 16.1045H140.705L143.28 25.8005H143.784L145.927 16.1045H148.458L144.895 29.4208H142.514ZM152.133 17.4369C151.909 17.4369 151.703 17.406 151.523 17.3446C151.346 17.2837 151.194 17.1997 151.073 17.0954C150.952 16.992 150.863 16.8715 150.798 16.7289C150.735 16.5863 150.703 16.4271 150.703 16.2554C150.703 16.0786 150.735 15.9162 150.799 15.7735C150.863 15.6305 150.952 15.5109 151.072 15.4075C151.193 15.3037 151.344 15.2211 151.52 15.1643C151.701 15.1048 151.908 15.0752 152.133 15.0752C152.357 15.0752 152.562 15.1048 152.74 15.1634C152.913 15.2206 153.062 15.3032 153.184 15.408C153.305 15.5118 153.396 15.6323 153.464 15.7763C153.53 15.918 153.563 16.0795 153.563 16.2554C153.563 16.4266 153.53 16.584 153.464 16.7262C153.396 16.8697 153.305 16.9911 153.184 17.0954C153.061 17.2002 152.911 17.2846 152.737 17.3446C152.56 17.406 152.357 17.4369 152.133 17.4369ZM150.952 29.4208H153.304V19.3463H150.952V29.4208ZM156.299 29.4208V19.3463H158.564V21.024H159.13L159.174 20.8611C159.237 20.6271 159.345 20.4069 159.494 20.2048C159.646 19.9989 159.832 19.8189 160.048 19.6685C160.266 19.5171 160.515 19.3952 160.791 19.3066C161.066 19.2189 161.365 19.1746 161.679 19.1746C161.861 19.1746 162.056 19.1852 162.256 19.2069C162.369 19.2189 162.469 19.2346 162.552 19.2531V21.3305C162.452 21.3092 162.342 21.2912 162.227 21.2765C162.101 21.2598 161.97 21.2465 161.834 21.2372C161.697 21.2271 161.569 21.222 161.448 21.222C161.041 21.222 160.664 21.2806 160.328 21.396C159.987 21.5137 159.687 21.6877 159.439 21.9138C159.189 22.1409 158.992 22.4183 158.855 22.7386C158.72 23.0571 158.651 23.4198 158.651 23.8163V29.4208H156.299ZM168.947 20.8025C168.594 20.8025 168.265 20.8625 167.97 20.9806C167.675 21.0997 167.413 21.2691 167.192 21.4851C166.97 21.702 166.79 21.9642 166.658 22.2651C166.527 22.5623 166.446 22.8997 166.419 23.2666L166.401 23.5034H171.39L171.38 23.2726C171.345 22.5217 171.111 21.9171 170.684 21.4758C170.251 21.0286 169.667 20.8025 168.947 20.8025ZM168.976 29.6502C168.201 29.6502 167.5 29.5311 166.894 29.2975C166.295 29.0658 165.778 28.7257 165.361 28.2845C164.944 27.8428 164.62 27.2935 164.401 26.6534C164.179 26.0054 164.067 25.2595 164.067 24.4362C164.067 23.6058 164.181 22.8517 164.405 22.1949C164.629 21.5442 164.954 20.9857 165.373 20.5334C165.79 20.0825 166.304 19.7308 166.899 19.4862C167.496 19.2415 168.182 19.1178 168.938 19.1178C169.687 19.1178 170.365 19.2346 170.951 19.4645C171.531 19.6925 172.03 20.0248 172.431 20.4531C172.834 20.8828 173.146 21.4177 173.359 22.0426C173.574 22.674 173.685 23.4028 173.685 24.2072V24.8349H166.409V25.1986C166.416 25.62 166.484 26.0017 166.611 26.3349C166.739 26.6718 166.919 26.9649 167.147 27.204C167.376 27.4458 167.656 27.6342 167.98 27.7634C168.299 27.8903 168.66 27.9554 169.053 27.9554C169.643 27.9554 170.145 27.852 170.543 27.6498C170.909 27.4638 171.182 27.2008 171.357 26.8685H173.533C173.427 27.2303 173.269 27.5635 173.064 27.8635C172.809 28.2351 172.481 28.5577 172.09 28.8198C171.695 29.0848 171.231 29.2915 170.71 29.4337C170.183 29.5768 169.6 29.6502 168.976 29.6502ZM70.35 50.6478C69.3525 50.6478 68.4467 50.4849 67.6572 50.1637C66.8709 49.8438 66.1944 49.38 65.6464 48.7842C65.0969 48.1869 64.6671 47.4462 64.3707 46.5831C64.0729 45.7154 63.9222 44.7185 63.9222 43.6228C63.9222 42.5465 64.0734 41.5615 64.3712 40.6966C64.6675 39.8354 65.0951 39.0965 65.6422 38.4988C66.1879 37.9034 66.8579 37.4372 67.6344 37.1142C68.4136 36.7911 69.3046 36.6263 70.2825 36.6263C71.0753 36.6263 71.8187 36.7371 72.4915 36.954C73.1614 37.17 73.7592 37.4806 74.2687 37.8762C74.7753 38.2694 75.1964 38.7522 75.5202 39.3097C75.8035 39.7975 76.0026 40.3394 76.1138 40.9232H73.6527C73.4136 40.254 73.013 39.7205 72.4617 39.3378C71.8718 38.9285 71.1385 38.7208 70.2825 38.7208C69.6949 38.7208 69.1548 38.8362 68.6774 39.0623C68.1992 39.2898 67.7893 39.6208 67.4585 40.0463C67.1319 40.4672 66.8788 40.9846 66.7053 41.5837C66.5341 42.1763 66.4471 42.852 66.4471 43.5942C66.4471 44.3497 66.5378 45.0369 66.715 45.6392C66.8951 46.2485 67.1589 46.7751 67.4985 47.2052C67.8419 47.6405 68.2652 47.9774 68.7561 48.2077C69.2455 48.4366 69.7973 48.5529 70.3983 48.5529C70.8938 48.5529 71.3581 48.4823 71.7764 48.3411C72.1984 48.1994 72.5673 47.9963 72.873 47.7374C73.18 47.4771 73.4266 47.1577 73.6067 46.788C73.7858 46.4192 73.8839 46.008 73.8979 45.5649L73.9156 45.0895H70.8994V43.3671H76.2781V44.9003C76.2781 45.7911 76.139 46.6011 75.8649 47.31C75.5932 48.0134 75.1982 48.6189 74.6925 49.1091C74.1854 49.5997 73.5601 49.9828 72.8348 50.2463C72.1039 50.5131 71.2679 50.6478 70.35 50.6478ZM78.9458 50.2957V40.2203H81.2115V41.8989H81.7772L81.8214 41.7351C81.8842 41.5015 81.9921 41.2814 82.1415 41.0792C82.2932 40.8738 82.4797 40.6929 82.6956 40.5429C82.9129 40.3915 83.1627 40.2692 83.4386 40.1815C83.7131 40.0938 84.0122 40.0491 84.3263 40.0491C84.5086 40.0491 84.7031 40.0597 84.9032 40.0809C85.0167 40.0938 85.1162 40.1086 85.1995 40.128V42.2049C85.0986 42.1842 84.9897 42.1662 84.8743 42.1509C84.7482 42.1338 84.617 42.1214 84.4817 42.1117C84.3444 42.1011 84.216 42.096 84.0955 42.096C83.688 42.096 83.3116 42.1546 82.9752 42.2705C82.6342 42.3877 82.3346 42.5612 82.0861 42.7874C81.8358 43.0154 81.6395 43.2928 81.5027 43.6131C81.3669 43.9315 81.298 44.2948 81.298 44.6903V50.2957H78.9458ZM91.7106 41.82C91.3058 41.82 90.9373 41.9012 90.6149 42.0623C90.2925 42.2243 90.0185 42.4592 89.8008 42.7597C89.5867 43.0542 89.4206 43.4188 89.3085 43.8434C89.1987 44.2602 89.1429 44.7342 89.1429 45.2525C89.1429 46.3251 89.3606 47.1702 89.7896 47.7651C90.2362 48.3835 90.8824 48.6955 91.7106 48.6955C92.5322 48.6955 93.1761 48.3817 93.626 47.7605C94.0586 47.1618 94.2773 46.3186 94.2773 45.2525C94.2773 44.7337 94.2215 44.2602 94.1117 43.8438C93.9991 43.4178 93.8325 43.0528 93.6143 42.7578C93.3929 42.4588 93.1193 42.2243 92.8011 42.0628C92.4824 41.9017 92.1149 41.82 91.7106 41.82ZM91.7106 50.5242C90.9271 50.5242 90.2171 50.4042 89.5993 50.1669C88.9866 49.9325 88.4613 49.5868 88.0379 49.1391C87.6132 48.6914 87.2829 48.1362 87.0577 47.4877C86.8297 46.8346 86.7148 46.0828 86.7148 45.2525C86.7148 44.43 86.8311 43.6837 87.0619 43.0334C87.2908 42.3886 87.6234 41.8343 88.0514 41.3862C88.4795 40.9385 89.0052 40.5909 89.6146 40.3528C90.2297 40.1132 90.935 39.9918 91.7106 39.9918C92.4856 39.9918 93.1905 40.1132 93.806 40.3528C94.4155 40.5909 94.9421 40.9389 95.3692 41.3866C95.7972 41.8343 96.1299 42.3886 96.3583 43.0334C96.5886 43.6842 96.7063 44.43 96.7063 45.2525C96.7063 46.0818 96.5905 46.8342 96.363 47.4882C96.1378 48.1357 95.8075 48.6914 95.3827 49.1391C94.9593 49.5868 94.4345 49.9329 93.8209 50.1669C93.203 50.4037 92.4926 50.5242 91.7106 50.5242ZM102.544 50.5242C102.004 50.5242 101.512 50.4406 101.081 50.2763C100.657 50.1148 100.291 49.8762 99.9951 49.5678C99.6973 49.2582 99.4657 48.8723 99.3037 48.4209C99.14 47.964 99.0572 47.4378 99.0572 46.8549V40.2208H101.409V46.1395C101.409 48.1343 102.591 48.5534 103.582 48.5534C104.343 48.5534 104.935 48.3249 105.343 47.8745C105.744 47.4309 105.947 46.8222 105.947 46.0634V40.2203H108.3V50.2952H106.034V48.6078H105.488L105.432 48.7458C105.201 49.3177 104.849 49.7612 104.387 50.0649C103.923 50.3695 103.302 50.5242 102.544 50.5242ZM116.232 41.934C115.829 41.934 115.458 42.0138 115.132 42.1708C114.804 42.3282 114.521 42.5562 114.293 42.8492C114.069 43.1358 113.895 43.4898 113.775 43.8997C113.657 44.3026 113.598 44.7609 113.598 45.2626C113.598 45.7643 113.658 46.2217 113.775 46.6205C113.895 47.0271 114.069 47.3792 114.293 47.6668C114.521 47.9594 114.802 48.1874 115.126 48.3452C115.449 48.5022 115.819 48.5815 116.223 48.5815C116.632 48.5815 117.005 48.5035 117.332 48.3508C117.661 48.1962 117.942 47.9686 118.168 47.6746C118.389 47.3866 118.56 47.0335 118.676 46.6232C118.79 46.2217 118.848 45.7602 118.848 45.2525C118.848 44.7517 118.79 44.2957 118.675 43.8965C118.559 43.4894 118.387 43.1363 118.162 42.8488C117.934 42.5566 117.654 42.3282 117.329 42.1708C117.006 42.0138 116.636 41.934 116.232 41.934ZM111.275 53.7845V40.2208H113.541V41.946H114.076L114.136 41.8214C114.266 41.55 114.437 41.3022 114.641 41.0843C114.847 40.866 115.082 40.6763 115.339 40.5217C115.595 40.3685 115.88 40.2508 116.188 40.1709C116.499 40.0897 116.83 40.0491 117.174 40.0491C117.811 40.0491 118.387 40.1654 118.888 40.3957C119.385 40.6246 119.815 40.9634 120.167 41.4005C120.522 41.8435 120.798 42.3914 120.988 43.032C121.179 43.6791 121.277 44.4263 121.277 45.2525C121.277 46.0791 121.181 46.8272 120.992 47.4752C120.806 48.1154 120.533 48.6618 120.181 49.1003C119.832 49.5365 119.405 49.8748 118.91 50.1065C118.414 50.3391 117.846 50.4572 117.222 50.4572C116.502 50.4572 115.875 50.3095 115.357 50.0188C114.847 49.7326 114.465 49.3255 114.224 48.8109L114.164 48.684H113.627V53.7845H111.275ZM2.74445 16.0371L33.2852 20.4914L41.2906 2.72215H2.74445V16.0371ZM36.1059 20.9035L48.9843 22.7815V2.72215H44.2965L36.1059 20.9035ZM30.4686 33.4163L48.9843 30.33V25.5337L34.9424 23.4858L30.4686 33.4163ZM2.74445 38.0382L27.218 33.9586L32.1221 23.0746L2.74445 18.7892V38.0382ZM2.74445 40.7991V48.594H20.6246L25.873 36.9438L2.74445 40.7991ZM29.1236 36.402L23.631 48.594H48.9843V33.0905L29.1236 36.402ZM0 51.3171H51.7292V0H0V51.3171Z" fill="#FDFDFD"/>
</g>
</g>
<defs>
<clipPath id="clip0_35_897">
<rect width="174" height="54" fill="white"/>
</clipPath>
</defs>
</svg>
