<svg width="114" height="34" viewBox="0 0 114 34" fill="none" xmlns="http://www.w3.org/2000/svg">
<path d="M36.0568 12.6586L34.3887 9.72754C34.2325 9.49014 33.9933 9.32425 33.7215 9.26519C33.4533 9.20148 33.1716 9.24599 32.934 9.38944C32.6959 9.52978 32.5192 9.75956 32.4404 10.0309C32.36 10.3026 32.3813 10.5955 32.5004 10.8516L34.1753 13.7826C34.4002 14.1782 34.5219 14.6271 34.5288 15.0858C34.5297 15.5452 34.4147 15.9971 34.1952 16.3965L26.9289 29.7549C26.7097 30.155 26.3921 30.4884 26.0082 30.7206C25.6262 30.9548 25.1911 31.0808 24.747 31.086C24.3028 31.092 23.8653 30.9755 23.4793 30.7483C23.0926 30.5242 22.7704 30.1981 22.5452 29.8033L14.4182 15.5549H11.8896L20.6569 30.9345C21.0694 31.666 21.661 32.2723 22.3719 32.693C23.0845 33.1088 23.8889 33.3273 24.7073 33.3274H24.7604C25.5886 33.3168 26.3992 33.0788 27.109 32.6377C27.821 32.2019 28.4084 31.5782 28.8107 30.8308L36.0969 17.4791C36.4974 16.7374 36.7042 15.9008 36.6973 15.0515C36.6893 14.2097 36.4685 13.3849 36.0568 12.6586Z" fill="#FDFDFD" stroke="#FDFDFD" stroke-width="0.146373"/>
<path d="M29.6914 2.71331C29.2904 1.9738 28.7024 1.36121 27.9901 0.941009C27.2818 0.513596 26.4749 0.291868 25.6547 0.299507H10.9354C10.1183 0.299075 9.31519 0.520352 8.60661 0.941009C7.89951 1.35905 7.31252 1.96356 6.90529 2.69276L5.25707 5.61C5.13138 5.86339 5.10303 6.15642 5.17725 6.43065C5.2555 6.70585 5.43182 6.94018 5.67083 7.08596C5.9107 7.23022 6.19545 7.27222 6.46481 7.20315C6.7402 7.13969 6.98009 6.96599 7.13204 6.72025L8.77342 3.80302C8.99538 3.41047 9.31306 3.08467 9.69446 2.85811C10.076 2.63111 10.5086 2.51217 10.9488 2.51328H25.6681C26.1083 2.51217 26.5409 2.63111 26.9224 2.85811C27.3056 3.08526 27.6233 3.414 27.8431 3.81009C28.0658 4.20312 28.1811 4.65114 28.1767 5.10656C28.1787 5.56259 28.0613 6.01056 27.8366 6.40304L20.0099 20.2514L21.2574 22.4446L29.6982 7.52036C30.1128 6.79059 30.3314 5.95958 30.3319 5.1133C30.3328 4.26807 30.1114 3.4385 29.6914 2.71331Z" fill="#FDFDFD" stroke="#FDFDFD" stroke-width="0.146373"/>
<path d="M16.3133 31.4598H13.0504C12.6159 31.4585 12.1897 31.3372 11.8159 31.1083C11.4357 30.8879 11.1218 30.5631 10.9086 30.1701L3.48882 16.977C3.26806 16.5804 3.15096 16.1311 3.14868 15.6735C3.14279 15.2166 3.25553 14.7667 3.47546 14.3703C3.68796 13.9714 4.00193 13.6399 4.38314 13.4116C4.76359 13.1803 5.19613 13.0567 5.63747 13.0529L21.5443 13.0115L22.8055 10.7769L5.63747 10.8253C4.82091 10.8267 4.01946 11.0527 3.31549 11.4803C2.60693 11.9086 2.01987 12.5224 1.61384 13.2597C1.20841 13.9999 0.996881 14.8367 1.00003 15.6873C1.00711 16.5348 1.22556 17.3662 1.63404 18.1011L9.02708 31.3079C9.43829 32.034 10.0244 32.6375 10.7284 33.0597C11.432 33.4807 12.2309 33.7021 13.0439 33.7012H16.2999C16.4411 33.7015 16.5809 33.673 16.7114 33.6174C16.8419 33.5617 16.9607 33.48 17.0606 33.3769C17.2612 33.1649 17.3735 32.8804 17.3741 32.5839C17.3743 32.438 17.3468 32.2935 17.2929 32.1586C17.2391 32.0237 17.1603 31.9012 17.0606 31.7979C16.9619 31.6927 16.8434 31.609 16.7127 31.5521C16.582 31.4952 16.4417 31.466 16.2999 31.4666L16.3133 31.4598Z" fill="#FDFDFD" stroke="#FDFDFD" stroke-width="0.146373"/>
<path d="M51.8495 27.0246C55.0481 27.0246 57.0545 25.4618 57.6651 22.6366H57.6942C57.6942 24.1994 57.636 25.7924 57.5488 26.7842H60.8056V11.937H57.5488V18.519C57.5488 22.1256 55.7169 24.1393 52.8091 24.1393C50.4538 24.1393 49.058 22.8169 49.058 20.4726V11.937H45.8013V20.9535C45.8013 24.8907 48.0984 27.0246 51.8495 27.0246Z" fill="#FDFDFD"/>
<path d="M64.0637 26.7842H67.3204V20.2923C67.3204 16.7458 68.8616 14.5818 71.3332 14.5818C73.2523 14.5818 74.1828 15.754 74.1828 18.2485C74.1828 18.9398 74.1247 19.6912 74.0665 20.2622H77.0325C77.0907 19.6311 77.1779 18.4289 77.1779 17.4972C77.1779 13.8004 75.4623 11.6965 72.3509 11.6965C69.385 11.6965 67.902 13.5299 67.2332 16.2048H67.2041L67.3204 11.937H64.0637V26.7842Z" fill="#FDFDFD"/>
<path d="M85.8686 27.0246C89.0672 27.0246 91.0736 25.4618 91.6842 22.6366H91.7133C91.7133 24.1994 91.6551 25.7924 91.5679 26.7842H94.8246V11.937H91.5679V18.519C91.5679 22.1256 89.736 24.1393 86.8282 24.1393C84.4728 24.1393 83.0771 22.8169 83.0771 20.4726V11.937H79.8204V20.9535C79.8204 24.8907 82.1175 27.0246 85.8686 27.0246Z" fill="#FDFDFD"/>
<path d="M98.17 10.1938H101.514V6.8877H98.17V10.1938ZM98.1991 26.7842H101.456V11.937H98.1991V26.7842Z" fill="#FDFDFD"/>
<path d="M111.267 26.9645C112.459 26.9645 113.448 26.7541 113.884 26.6039V23.929C113.477 24.0492 112.546 24.1994 111.732 24.1994C109.755 24.1994 109.057 23.2377 109.057 21.3142V14.672H114V11.937H109.057V8.57078H106.353L106.207 10.7949C106.12 11.6364 105.916 11.937 105.364 11.937H103.532V14.672H105.8V21.4945C105.8 24.7705 107.341 26.9645 111.267 26.9645Z" fill="#FDFDFD"/>
</svg>
