<svg width="236" height="34" viewBox="0 0 236 34" fill="none" xmlns="http://www.w3.org/2000/svg">
<path d="M36.0568 12.6581L34.3887 9.72705C34.2325 9.48965 33.9933 9.32376 33.7215 9.2647C33.4533 9.20099 33.1716 9.24551 32.934 9.38896C32.6959 9.5293 32.5192 9.75907 32.4404 10.0305C32.36 10.3021 32.3813 10.595 32.5004 10.8511L34.1753 13.7821C34.4002 14.1778 34.5219 14.6266 34.5288 15.0854C34.5297 15.5447 34.4147 15.9966 34.1952 16.396L26.9289 29.7544C26.7097 30.1545 26.3921 30.4879 26.0082 30.7202C25.6262 30.9543 25.1911 31.0803 24.747 31.0855C24.3028 31.0915 23.8653 30.975 23.4793 30.7478C23.0926 30.5237 22.7704 30.1976 22.5452 29.8029L14.4182 15.5544H11.8896L20.6569 30.934C21.0694 31.6655 21.661 32.2718 22.3719 32.6925C23.0845 33.1083 23.8889 33.3268 24.7073 33.3269H24.7604C25.5886 33.3163 26.3992 33.0783 27.109 32.6373C27.821 32.2014 28.4084 31.5777 28.8107 30.8303L36.0969 17.4786C36.4974 16.7369 36.7042 15.9003 36.6973 15.051C36.6893 14.2092 36.4685 13.3844 36.0568 12.6581Z" fill="#1CE8C1" stroke="#1CE8C1" stroke-width="0.146373"/>
<path d="M29.6914 2.71306C29.2904 1.97356 28.7024 1.36097 27.9901 0.940765C27.2818 0.513352 26.4749 0.291624 25.6547 0.299263H10.9354C10.1183 0.298831 9.31519 0.520108 8.60661 0.940765C7.89951 1.35881 7.31252 1.96331 6.90529 2.69252L5.25707 5.60976C5.13138 5.86315 5.10303 6.15618 5.17725 6.43041C5.2555 6.70561 5.43182 6.93994 5.67083 7.08571C5.9107 7.22998 6.19545 7.27198 6.46481 7.2029C6.7402 7.13944 6.98009 6.96574 7.13204 6.72001L8.77342 3.80277C8.99538 3.41022 9.31306 3.08442 9.69446 2.85786C10.076 2.63087 10.5086 2.51192 10.9488 2.51303H25.6681C26.1083 2.51192 26.5409 2.63087 26.9224 2.85786C27.3056 3.08502 27.6233 3.41376 27.8431 3.80985C28.0658 4.20288 28.1811 4.6509 28.1767 5.10632C28.1787 5.56234 28.0613 6.01031 27.8366 6.40279L20.0099 20.2512L21.2574 22.4444L29.6982 7.52012C30.1128 6.79035 30.3314 5.95934 30.3319 5.11305C30.3328 4.26783 30.1114 3.43826 29.6914 2.71306Z" fill="#1CE8C1" stroke="#1CE8C1" stroke-width="0.146373"/>
<path d="M16.3133 31.4593H13.0504C12.6159 31.458 12.1897 31.3367 11.8159 31.1078C11.4357 30.8874 11.1218 30.5626 10.9086 30.1696L3.48882 16.9765C3.26806 16.5799 3.15096 16.1306 3.14868 15.673C3.14279 15.2161 3.25553 14.7662 3.47546 14.3698C3.68796 13.9709 4.00193 13.6394 4.38314 13.4111C4.76359 13.1799 5.19613 13.0562 5.63747 13.0524L21.5443 13.011L22.8055 10.7764L5.63747 10.8249C4.82091 10.8262 4.01946 11.0522 3.31549 11.4798C2.60693 11.9081 2.01987 12.5219 1.61384 13.2592C1.20841 13.9994 0.996881 14.8362 1.00003 15.6868C1.00711 16.5343 1.22556 17.3657 1.63404 18.1006L9.02708 31.3075C9.43829 32.0335 10.0244 32.637 10.7284 33.0592C11.432 33.4803 12.2309 33.7016 13.0439 33.7007H16.2999C16.4411 33.701 16.5809 33.6725 16.7114 33.6169C16.8419 33.5612 16.9607 33.4795 17.0606 33.3764C17.2612 33.1644 17.3735 32.8799 17.3741 32.5834C17.3743 32.4375 17.3468 32.293 17.2929 32.1581C17.2391 32.0232 17.1603 31.9007 17.0606 31.7974C16.9619 31.6922 16.8434 31.6085 16.7127 31.5516C16.582 31.4947 16.4417 31.4655 16.2999 31.4661L16.3133 31.4593Z" fill="#1CE8C1" stroke="#1CE8C1" stroke-width="0.146373"/>
<path d="M51.8495 27.0244C55.0481 27.0244 57.0545 25.4615 57.6651 22.6363H57.6942C57.6942 24.1992 57.636 25.7921 57.5488 26.7839H60.8056V11.9367H57.5488V18.5188C57.5488 22.1254 55.7169 24.1391 52.8091 24.1391C50.4538 24.1391 49.058 22.8167 49.058 20.4724V11.9367H45.8013V20.9532C45.8013 24.8905 48.0984 27.0244 51.8495 27.0244Z" fill="#06262A"/>
<path d="M64.0637 26.7839H67.3204V20.292C67.3204 16.7455 68.8616 14.5816 71.3332 14.5816C73.2523 14.5816 74.1828 15.7537 74.1828 18.2483C74.1828 18.9396 74.1247 19.6909 74.0665 20.262H77.0325C77.0907 19.6308 77.1779 18.4286 77.1779 17.4969C77.1779 13.8001 75.4623 11.6963 72.3509 11.6963C69.385 11.6963 67.902 13.5296 67.2332 16.2045H67.2041L67.3204 11.9367H64.0637V26.7839Z" fill="#06262A"/>
<path d="M85.8686 27.0244C89.0672 27.0244 91.0736 25.4615 91.6842 22.6363H91.7133C91.7133 24.1992 91.6551 25.7921 91.5679 26.7839H94.8246V11.9367H91.5679V18.5188C91.5679 22.1254 89.736 24.1391 86.8282 24.1391C84.4728 24.1391 83.0771 22.8167 83.0771 20.4724V11.9367H79.8204V20.9532C79.8204 24.8905 82.1175 27.0244 85.8686 27.0244Z" fill="#06262A"/>
<path d="M98.17 10.1935H101.514V6.88745H98.17V10.1935ZM98.1991 26.7839H101.456V11.9367H98.1991V26.7839Z" fill="#06262A"/>
<path d="M111.267 26.9643C112.459 26.9643 113.448 26.7539 113.884 26.6036V23.9287C113.477 24.0489 112.546 24.1992 111.732 24.1992C109.755 24.1992 109.057 23.2374 109.057 21.3139V14.6717H114V11.9367H109.057V8.57054H106.353L106.207 10.7946C106.12 11.6362 105.916 11.9367 105.364 11.9367H103.532V14.6717H105.8V21.4942C105.8 24.7703 107.341 26.9643 111.267 26.9643Z" fill="#06262A"/>
<path d="M127.056 20V12.85H127.956V19.17H131.706V20H127.056ZM132.023 20L134.653 12.85H135.663L138.303 20H137.323L136.563 17.82H133.713L132.943 20H132.023ZM134.823 14.69L133.973 17.09H136.313L135.493 14.69L135.173 13.68H135.153C135.026 14.08 134.916 14.4167 134.823 14.69ZM140.669 20V12.85H143.269C144.316 12.85 145.106 13.1733 145.639 13.82C146.172 14.4667 146.439 15.3433 146.439 16.45C146.439 17.55 146.162 18.4167 145.609 19.05C145.056 19.6833 144.252 20 143.199 20H140.669ZM141.569 19.21H143.169C144.736 19.21 145.519 18.29 145.519 16.45C145.519 14.57 144.759 13.63 143.239 13.63H141.569V19.21ZM147.385 20V14.83H148.195V20H147.385ZM147.385 13.85V12.85H148.195V13.85H147.385ZM151.359 21.72C150.699 21.72 150.179 21.5933 149.799 21.34C149.426 21.0933 149.216 20.7433 149.169 20.29H149.919C149.992 20.8167 150.466 21.08 151.339 21.08C152.326 21.08 152.819 20.6367 152.819 19.75V19.02H152.799C152.592 19.2867 152.372 19.4867 152.139 19.62C151.906 19.7533 151.616 19.82 151.269 19.82C150.602 19.82 150.059 19.58 149.639 19.1C149.219 18.62 149.009 18.0067 149.009 17.26C149.009 16.48 149.219 15.86 149.639 15.4C150.066 14.94 150.592 14.71 151.219 14.71C151.899 14.71 152.426 14.97 152.799 15.49H152.819V14.83H153.629V19.72C153.629 20.38 153.426 20.8767 153.019 21.21C152.619 21.55 152.066 21.72 151.359 21.72ZM151.309 19.14C152.356 19.14 152.879 18.5 152.879 17.22C152.879 16 152.352 15.39 151.299 15.39C150.826 15.39 150.462 15.56 150.209 15.9C149.962 16.24 149.839 16.6967 149.839 17.27C149.839 17.8433 149.966 18.3 150.219 18.64C150.472 18.9733 150.836 19.14 151.309 19.14ZM154.729 20V14.83H155.539V20H154.729ZM154.729 13.85V12.85H155.539V13.85H154.729ZM156.313 15.49V14.83H157.063V13.2H157.873V14.83H158.873V15.49H157.873V18.85C157.873 19.17 158.046 19.33 158.393 19.33C158.539 19.33 158.683 19.3067 158.823 19.26H158.853V19.96C158.633 20.0067 158.416 20.03 158.203 20.03C157.443 20.03 157.063 19.6967 157.063 19.03V15.49H156.313ZM163.769 20.05C163.256 20.05 162.959 19.7933 162.879 19.28H162.869C162.443 19.8267 161.869 20.1 161.149 20.1C160.636 20.1 160.216 19.9767 159.889 19.73C159.563 19.4833 159.399 19.1267 159.399 18.66C159.399 18.42 159.436 18.2133 159.509 18.04C159.589 17.86 159.689 17.7167 159.809 17.61C159.929 17.4967 160.093 17.4 160.299 17.32C160.513 17.2333 160.716 17.17 160.909 17.13C161.103 17.0833 161.349 17.0367 161.649 16.99C161.843 16.9633 161.979 16.9433 162.059 16.93C162.146 16.91 162.256 16.8833 162.389 16.85C162.523 16.81 162.616 16.7667 162.669 16.72C162.723 16.6733 162.773 16.61 162.819 16.53C162.866 16.45 162.889 16.3567 162.889 16.25C162.889 15.9567 162.786 15.7333 162.579 15.58C162.379 15.42 162.096 15.34 161.729 15.34C160.896 15.34 160.466 15.72 160.439 16.48H159.659C159.673 15.9533 159.853 15.53 160.199 15.21C160.553 14.89 161.059 14.73 161.719 14.73C162.993 14.73 163.629 15.2767 163.629 16.37V18.83C163.629 19.0567 163.666 19.2167 163.739 19.31C163.819 19.4033 163.966 19.4267 164.179 19.38H164.209V19.97C164.076 20.0233 163.929 20.05 163.769 20.05ZM161.329 19.48C161.829 19.48 162.216 19.3367 162.489 19.05C162.763 18.7567 162.899 18.4367 162.899 18.09V17.21C162.653 17.3633 162.259 17.49 161.719 17.59C161.519 17.63 161.363 17.6633 161.249 17.69C161.136 17.71 161.006 17.75 160.859 17.81C160.713 17.8633 160.603 17.9233 160.529 17.99C160.456 18.0567 160.393 18.1467 160.339 18.26C160.286 18.3667 160.259 18.4933 160.259 18.64C160.259 19.2 160.616 19.48 161.329 19.48ZM164.837 20V12.85H165.647V20H164.837ZM168.491 20V12.85H171.471C172.218 12.85 172.785 13.08 173.171 13.54C173.491 13.9133 173.651 14.3667 173.651 14.9C173.651 15.5667 173.458 16.0833 173.071 16.45C172.685 16.8167 172.108 17 171.341 17H169.391V20H168.491ZM169.391 13.63V16.27H171.271C171.765 16.27 172.135 16.1533 172.381 15.92C172.635 15.6867 172.761 15.36 172.761 14.94C172.761 14.5133 172.635 14.19 172.381 13.97C172.135 13.7433 171.781 13.63 171.321 13.63H169.391ZM175.207 14.83V15.69H175.227C175.393 15.4167 175.61 15.1967 175.877 15.03C176.143 14.8567 176.44 14.77 176.767 14.77C176.887 14.77 176.997 14.79 177.097 14.83V15.61H177.067C176.967 15.5767 176.847 15.56 176.707 15.56C176.293 15.56 175.94 15.7067 175.647 16C175.353 16.2867 175.207 16.6633 175.207 17.13V20H174.397V14.83H175.207ZM181.649 19.36C181.196 19.88 180.592 20.14 179.839 20.14C179.086 20.14 178.479 19.88 178.019 19.36C177.566 18.84 177.339 18.1933 177.339 17.42C177.339 16.6467 177.566 16 178.019 15.48C178.479 14.96 179.086 14.7 179.839 14.7C180.592 14.7 181.196 14.96 181.649 15.48C182.102 16 182.329 16.6467 182.329 17.42C182.329 18.1933 182.102 18.84 181.649 19.36ZM178.599 18.89C178.892 19.27 179.306 19.46 179.839 19.46C180.372 19.46 180.782 19.27 181.069 18.89C181.356 18.5033 181.499 18.0133 181.499 17.42C181.499 16.82 181.352 16.33 181.059 15.95C180.772 15.5633 180.366 15.37 179.839 15.37C179.306 15.37 178.892 15.5633 178.599 15.95C178.312 16.3367 178.169 16.8267 178.169 17.42C178.169 18.0133 178.312 18.5033 178.599 18.89ZM185.137 20.15C184.43 20.15 183.87 19.9067 183.457 19.42C183.05 18.9267 182.847 18.2633 182.847 17.43C182.847 16.59 183.06 15.9267 183.487 15.44C183.914 14.9533 184.457 14.71 185.117 14.71C185.817 14.71 186.357 14.9933 186.737 15.56H186.757V12.85H187.567V20H186.757V19.37H186.737C186.33 19.89 185.797 20.15 185.137 20.15ZM185.167 19.47C185.72 19.47 186.13 19.2867 186.397 18.92C186.67 18.5533 186.807 18.06 186.807 17.44C186.807 16.8267 186.66 16.3333 186.367 15.96C186.08 15.5867 185.677 15.4 185.157 15.4C184.684 15.4 184.317 15.59 184.057 15.97C183.804 16.3433 183.677 16.8333 183.677 17.44C183.677 18.0467 183.804 18.5367 184.057 18.91C184.317 19.2833 184.687 19.47 185.167 19.47ZM192.764 20H191.954V19.29H191.934C191.528 19.8433 191.008 20.12 190.374 20.12C189.841 20.12 189.418 19.97 189.104 19.67C188.791 19.3633 188.634 18.9433 188.634 18.41V14.83H189.444V18.39C189.444 18.7233 189.544 18.9833 189.744 19.17C189.951 19.3567 190.238 19.45 190.604 19.45C191.011 19.45 191.338 19.3133 191.584 19.04C191.831 18.7667 191.954 18.4233 191.954 18.01V14.83H192.764V20ZM196.07 20.14C195.316 20.14 194.71 19.88 194.25 19.36C193.796 18.84 193.57 18.1933 193.57 17.42C193.57 16.6467 193.796 16 194.25 15.48C194.71 14.96 195.316 14.7 196.07 14.7C196.676 14.7 197.173 14.8633 197.56 15.19C197.946 15.51 198.186 15.9467 198.28 16.5H197.46C197.4 16.1467 197.25 15.87 197.01 15.67C196.77 15.47 196.456 15.37 196.07 15.37C195.536 15.37 195.123 15.5633 194.83 15.95C194.543 16.3367 194.4 16.8267 194.4 17.42C194.4 18.0133 194.543 18.5033 194.83 18.89C195.123 19.27 195.536 19.46 196.07 19.46C196.483 19.46 196.813 19.35 197.06 19.13C197.306 18.9033 197.446 18.5867 197.48 18.18H198.28C198.226 18.8 198.006 19.2833 197.62 19.63C197.233 19.97 196.716 20.14 196.07 20.14ZM198.715 15.49V14.83H199.465V13.2H200.275V14.83H201.275V15.49H200.275V18.85C200.275 19.17 200.448 19.33 200.795 19.33C200.942 19.33 201.085 19.3067 201.225 19.26H201.255V19.96C201.035 20.0067 200.818 20.03 200.605 20.03C199.845 20.03 199.465 19.6967 199.465 19.03V15.49H198.715ZM203.253 20L205.883 12.85H206.893L209.533 20H208.553L207.793 17.82H204.943L204.173 20H203.253ZM206.053 14.69L205.203 17.09H207.543L206.723 14.69L206.403 13.68H206.383C206.257 14.08 206.147 14.4167 206.053 14.69ZM212.101 21.72C211.441 21.72 210.921 21.5933 210.541 21.34C210.168 21.0933 209.958 20.7433 209.911 20.29H210.661C210.735 20.8167 211.208 21.08 212.081 21.08C213.068 21.08 213.561 20.6367 213.561 19.75V19.02H213.541C213.335 19.2867 213.115 19.4867 212.881 19.62C212.648 19.7533 212.358 19.82 212.011 19.82C211.345 19.82 210.801 19.58 210.381 19.1C209.961 18.62 209.751 18.0067 209.751 17.26C209.751 16.48 209.961 15.86 210.381 15.4C210.808 14.94 211.335 14.71 211.961 14.71C212.641 14.71 213.168 14.97 213.541 15.49H213.561V14.83H214.371V19.72C214.371 20.38 214.168 20.8767 213.761 21.21C213.361 21.55 212.808 21.72 212.101 21.72ZM212.051 19.14C213.098 19.14 213.621 18.5 213.621 17.22C213.621 16 213.095 15.39 212.041 15.39C211.568 15.39 211.205 15.56 210.951 15.9C210.705 16.24 210.581 16.6967 210.581 17.27C210.581 17.8433 210.708 18.3 210.961 18.64C211.215 18.9733 211.578 19.14 212.051 19.14ZM217.681 20.14C216.914 20.14 216.304 19.8833 215.851 19.37C215.404 18.85 215.181 18.2 215.181 17.42C215.181 16.6533 215.408 16.01 215.861 15.49C216.321 14.9633 216.911 14.7 217.631 14.7C218.391 14.7 218.978 14.9667 219.391 15.5C219.804 16.0267 220.011 16.73 220.011 17.61H216.011C216.044 18.1567 216.204 18.6033 216.491 18.95C216.784 19.29 217.181 19.46 217.681 19.46C218.454 19.46 218.931 19.1067 219.111 18.4H219.901C219.781 18.9533 219.528 19.3833 219.141 19.69C218.754 19.99 218.268 20.14 217.681 20.14ZM218.711 15.78C218.451 15.4867 218.091 15.34 217.631 15.34C217.171 15.34 216.804 15.4933 216.531 15.8C216.264 16.1067 216.098 16.5067 216.031 17H219.141C219.114 16.48 218.971 16.0733 218.711 15.78ZM221.613 14.83V15.51H221.633C222.033 14.9767 222.58 14.71 223.273 14.71C223.82 14.71 224.246 14.8533 224.553 15.14C224.86 15.4267 225.013 15.8367 225.013 16.37V20H224.203V16.44C224.203 16.1067 224.1 15.85 223.893 15.67C223.686 15.4833 223.4 15.39 223.033 15.39C222.62 15.39 222.28 15.5233 222.013 15.79C221.746 16.0567 221.613 16.4 221.613 16.82V20H220.803V14.83H221.613ZM228.296 20.14C227.543 20.14 226.936 19.88 226.476 19.36C226.023 18.84 225.796 18.1933 225.796 17.42C225.796 16.6467 226.023 16 226.476 15.48C226.936 14.96 227.543 14.7 228.296 14.7C228.903 14.7 229.399 14.8633 229.786 15.19C230.173 15.51 230.413 15.9467 230.506 16.5H229.686C229.626 16.1467 229.476 15.87 229.236 15.67C228.996 15.47 228.683 15.37 228.296 15.37C227.763 15.37 227.349 15.5633 227.056 15.95C226.769 16.3367 226.626 16.8267 226.626 17.42C226.626 18.0133 226.769 18.5033 227.056 18.89C227.349 19.27 227.763 19.46 228.296 19.46C228.709 19.46 229.039 19.35 229.286 19.13C229.533 18.9033 229.673 18.5867 229.706 18.18H230.506C230.453 18.8 230.233 19.2833 229.846 19.63C229.459 19.97 228.943 20.14 228.296 20.14ZM231.932 21.71C231.625 21.71 231.382 21.6733 231.202 21.6V20.88H231.242C231.375 20.9533 231.558 20.99 231.792 20.99C231.972 20.99 232.122 20.9433 232.242 20.85C232.362 20.7633 232.468 20.6 232.562 20.36L232.762 19.85L230.742 14.83H231.622L232.842 18.05L233.192 19.06H233.212C233.332 18.6733 233.445 18.3367 233.552 18.05L234.732 14.83H235.592L233.382 20.42C233.182 20.9267 232.975 21.2667 232.762 21.44C232.548 21.62 232.272 21.71 231.932 21.71Z" fill="#06262A"/>
</svg>
