<svg width="70" height="84" viewBox="0 0 70 84" fill="none" xmlns="http://www.w3.org/2000/svg">
<path fill-rule="evenodd" clip-rule="evenodd" d="M39.6963 8.96943C39.7338 8.40826 39.9506 7.87428 40.3133 7.44902C40.6766 7.02317 41.1656 6.729 41.7082 6.60999V11.3306C41.1656 11.2122 40.676 10.9175 40.3133 10.4922C39.9506 10.0663 39.7338 9.53296 39.6963 8.97119V8.96943ZM45.6546 15.93H45.6552C45.6171 16.4912 45.4009 17.0252 45.0382 17.451C44.6755 17.8769 44.1859 18.1717 43.6433 18.2907V13.5706C44.1853 13.6896 44.6737 13.9844 45.0358 14.4103C45.3979 14.8355 45.6141 15.3689 45.6511 15.9301L45.6546 15.93ZM43.6434 21.4022V20.3052C44.7029 20.1603 45.678 19.6432 46.3998 18.8428C47.1211 18.043 47.5427 17.0119 47.5916 15.9288C47.5427 14.8463 47.1211 13.8146 46.3998 13.0148C45.6779 12.215 44.7029 11.6974 43.6434 11.5524V6.60999C44.1848 6.72959 44.6737 7.02437 45.0359 7.45023C45.398 7.87549 45.6136 8.40886 45.6511 8.96943C45.6511 9.51127 46.0847 9.95103 46.619 9.95103C47.1538 9.95103 47.5868 9.51127 47.5868 8.96943C47.5386 7.88636 47.1169 6.85521 46.3951 6.05542C45.6738 5.25565 44.6982 4.73798 43.6386 4.59301V3.49726C43.6386 2.95482 43.2056 2.51566 42.6714 2.51566C42.1365 2.51566 41.7035 2.9548 41.7035 3.49726V4.59423C40.6439 4.7386 39.6683 5.25627 38.9471 6.05604C38.2258 6.85582 37.8041 7.88758 37.7559 8.97067C37.8035 10.0537 38.2252 11.0849 38.9471 11.8847C39.6684 12.685 40.644 13.2021 41.7035 13.3471V18.2943C41.1609 18.1753 40.6713 17.8811 40.3086 17.4552C39.9459 17.0294 39.7291 16.4954 39.6922 15.9336C39.6922 15.3918 39.2586 14.952 38.7243 14.952C38.1895 14.952 37.7565 15.3918 37.7565 15.9336C37.8047 17.0167 38.227 18.0478 38.9483 18.8476C39.6695 19.6474 40.6451 20.1651 41.7047 20.3101V21.407C41.7047 21.9489 42.1377 22.3886 42.6719 22.3886C43.2068 22.3886 43.6398 21.9489 43.6398 21.407L43.6434 21.4022ZM9.43134 62.9334C9.78931 62.9328 10.1115 63.1509 10.2491 63.4861C10.3861 63.8214 10.3105 64.2068 10.0579 64.4635C9.80478 64.7202 9.4248 64.7969 9.09424 64.6586C8.76368 64.5197 8.54808 64.1929 8.54808 63.8298C8.54868 63.3351 8.94355 62.934 9.43134 62.9334ZM9.43134 66.6913C10.18 66.6919 10.8977 66.3911 11.4278 65.8547C11.9573 65.3183 12.2551 64.591 12.2557 63.8317C12.2563 63.0724 11.9591 62.3445 11.4302 61.8075C10.9013 61.2705 10.1836 60.9685 9.43494 60.9685C8.68688 60.9685 7.96858 61.2693 7.43967 61.8063C6.91018 62.3427 6.61298 63.0706 6.61298 63.8299C6.61298 64.588 6.91018 65.3153 7.43849 65.8516C7.96739 66.388 8.68392 66.6901 9.43134 66.6913ZM2.25442 64.341C1.82618 64.7771 1.82618 65.4826 2.25442 65.9187L17.6908 81.514C18.1209 81.9477 18.8159 81.9477 19.2453 81.514L25.1215 75.5296C25.5491 75.0935 25.5491 74.3892 25.1215 73.9531L9.68354 58.3578C9.47805 58.1488 9.19812 58.0328 8.90687 58.0347C8.61502 58.0335 8.33509 58.1506 8.1296 58.3603L2.25342 64.3446L2.25442 64.341ZM17.8631 54.3692C18.7023 53.4861 19.8668 52.9962 21.0764 53.0186H42.9121C44.2188 53.0186 45.4267 53.7253 46.0806 54.8736C46.734 56.0219 46.734 57.436 46.0806 58.5843C45.4267 59.7326 44.2188 60.4394 42.9121 60.4394H29.0292C28.5057 60.4557 28.09 60.8906 28.09 61.4216C28.09 61.9525 28.5057 62.3868 29.0292 62.4032H42.9121C44.3946 62.4013 45.8163 61.8027 46.8645 60.7389C47.9128 59.6752 48.5024 58.234 48.5042 56.7298C48.5042 56.6108 48.5042 56.493 48.4971 56.377L62.5169 44.526C62.5401 44.5091 62.5556 44.4928 62.5782 44.4741C63.3495 43.7069 64.4484 43.3819 65.5055 43.6084C66.5626 43.8349 67.4377 44.5834 67.8373 45.6013C68.237 46.6197 68.1071 47.7728 67.4925 48.6741L54.7216 67.3529C53.5078 69.1838 51.4643 70.2698 49.2891 70.2396H28.8683C27.6944 70.2215 26.5646 70.6963 25.7467 71.5517L25.6175 71.6791L13.1879 59.1262L17.8657 54.3771L17.8631 54.3692ZM33.6548 44.2319C31.2718 46.0001 29.3647 48.3456 28.1074 51.0547H42.9122C43.9665 51.0559 44.9987 51.3592 45.8908 51.9288C46.783 52.4984 47.499 53.3121 47.9564 54.2756L57.1376 46.5171C56.0369 45.3096 54.7777 44.2615 53.396 43.4019C51.2411 44.6372 48.8081 45.2871 46.3328 45.2895C45.1774 45.2895 44.0261 45.1458 42.9046 44.8625C42.8254 44.8395 42.7486 44.8087 42.6759 44.7688C42.6044 44.8111 42.5276 44.8425 42.4478 44.8625C41.3257 45.1458 40.1744 45.2895 39.0184 45.2895C37.1803 45.2883 35.3596 44.9289 33.655 44.2318L33.6548 44.2319ZM26.8966 28.3799C26.1282 32.2671 27.2241 36.2937 29.8501 39.2306C32.4756 42.1669 36.3196 43.6663 40.2089 43.2705L34.8676 37.8522C34.6788 37.6691 34.571 37.4166 34.568 37.1521C34.565 36.8869 34.6675 36.6326 34.8521 36.4453C35.0367 36.2581 35.2881 36.1542 35.5496 36.1578C35.8104 36.1608 36.0594 36.2708 36.2393 36.4628L41.5806 41.8812C41.9683 37.9373 40.4888 34.0406 37.5937 31.3779C34.6991 28.7158 30.7305 27.6032 26.8984 28.3793L26.8966 28.3799ZM32.3391 12.4491C32.3385 15.2301 33.4279 17.8982 35.3671 19.8651C37.3063 21.8319 39.9366 22.9367 42.6793 22.9367C45.4214 22.9367 48.0515 21.8313 49.9908 19.8645C51.9301 17.8977 53.0188 15.2295 53.0188 12.4485C53.0182 9.66685 51.9283 6.99934 49.9884 5.03311C48.0491 3.06688 45.4183 1.96276 42.6756 1.96323C39.9352 1.96746 37.3081 3.07348 35.3706 5.03914C33.4325 7.00475 32.3426 9.66917 32.339 12.4491H32.3391ZM47.3238 31.8005C44.7198 34.4579 43.4185 38.1528 43.7734 41.8816L49.1219 36.4632C49.5037 36.1002 50.0999 36.111 50.4685 36.4868C50.8372 36.8625 50.845 37.4671 50.4852 37.8525L45.1445 43.2709H45.1451C49.0344 43.6666 52.8784 42.1673 55.5039 39.231C58.1299 36.2941 59.2257 32.2675 58.4574 28.3803C54.4169 27.5745 50.2454 28.8557 47.3256 31.8004L47.3238 31.8005ZM16.3198 82.907C16.8922 83.4821 17.6653 83.804 18.4704 83.8028C19.2763 83.801 20.0482 83.476 20.6176 82.8985L26.4937 76.9129C26.9744 76.4242 27.2787 75.7852 27.3574 75.099C27.436 74.4134 27.2847 73.7206 26.9279 73.1328L27.1179 72.9468V72.9462C27.5754 72.4635 28.2109 72.1965 28.8708 72.2098H49.29C52.103 72.2509 54.7463 70.8471 56.3157 68.4785L69.0854 49.7967C70.0639 48.359 70.2718 46.5208 69.6387 44.896C69.0062 43.2711 67.616 42.0733 65.9328 41.7018C64.2496 41.3304 62.4944 41.8347 61.2532 43.0458L58.6321 45.2609C57.5928 44.115 56.4265 43.0941 55.1567 42.2188C57.3313 40.4991 58.9661 38.1754 59.8625 35.5301C60.7589 32.885 60.8786 30.0332 60.2062 27.3204C60.1204 26.9694 59.8506 26.6946 59.5052 26.6064C56.4819 25.8314 53.2913 26.0857 50.4246 27.3306C47.5579 28.5762 45.1743 30.7423 43.642 33.4968V24.86C47.8987 24.5187 51.6749 21.958 53.613 18.0987C55.5505 14.2394 55.3712 9.63583 53.1395 5.94337C50.9077 2.25076 46.9446 0 42.6741 0C38.4037 0 34.44 2.25076 32.2082 5.94337C29.9765 9.63598 29.7973 14.2394 31.7353 18.0987C33.6728 21.958 37.4496 24.5187 41.7063 24.86V33.5035C40.1738 30.7508 37.7914 28.5852 34.9266 27.3404C32.0617 26.0954 28.8729 25.8399 25.8503 26.6131C25.5025 26.7007 25.2303 26.9749 25.1415 27.3271C23.9449 32.2568 25.3696 37.4632 28.9003 41.0627C29.7425 41.9192 30.69 42.6629 31.7198 43.2742C29.2028 45.3473 27.2338 48.0239 25.9902 51.061H21.0836C19.3576 51.0368 17.6976 51.7333 16.4928 52.9867L11.8149 57.7358L11.0454 56.9656H11.0459C10.4789 56.3881 9.70764 56.065 8.90476 56.0692H8.89642C8.09237 56.0692 7.32168 56.3948 6.75524 56.9741L0.875554 62.9597C0.311524 63.5408 -0.00295234 64.3248 2.08925e-05 65.1404C0.00240329 65.9558 0.322837 66.7375 0.891045 67.3144L16.3198 82.907Z" fill="#06262A"/>
</svg>
